<svg xmlns="http://www.w3.org/2000/svg" version="1.1" xmlns:xlink="http://www.w3.org/1999/xlink" xmlns:svgjs="http://svgjs.dev/svgjs" width="1477" height="578" preserveAspectRatio="none" viewBox="0 0 1477 578"><g mask="url(&quot;#SvgjsMask8082&quot;)" fill="none"><use xlink:href="#SvgjsG8094" transform="translate(0, 0)" fill="rgba(67, 194, 225, 0.11)"></use><use xlink:href="#SvgjsG8094" transform="translate(990, 0)" fill="rgba(67, 194, 225, 0.11)"></use></g><defs><mask id="SvgjsMask8082"><rect width="1477" height="578" fill="#ffffff"></rect></mask><g id="SvgjsG8083"><path d="M4.33 11.98C3.53 8.77 6.23 0.57 6.23 0.57s6.23 5.97 7.03 9.18c0.54 2.18-0.31 4.99-3.31 5.74-3 0.75-5.08-1.34-5.62-3.51z" fill-rule="evenodd"></path></g><g id="SvgjsG8084"><path d="M9.53 15.33C5.4 16.36 1.21 13.84 0.18 9.71-0.85 5.58 1.67 1.39 5.8 0.36S14.13 1.85 15.16 5.98c1.03 4.13-1.5 8.33-5.63 9.35z m-0.46-1.85c3.11-0.77 5.01-3.93 4.23-7.04-0.77-3.1-3.94-5-7.04-4.23-3.11 0.77-5 3.94-4.23 7.04 0.77 3.11 3.93 5.01 7.04 4.23z"></path><path d="M7.95 8.82a0.57 0.57 0 0 1-0.55 0.1 0.58 0.58 0 0 1-0.34-0.33L5.96 4.24a0.58 0.58 0 0 1 1.13-0.28l0.84 3.38 2.55-2.08a0.58 0.58 0 0 1 0.82 0.08c0.2 0.25 0.16 0.62-0.09 0.82l-3.26 2.66z"></path></g><g id="SvgjsG8085"><path d="M2.84 9.94L0.41 10.55 0.08 9.26l2.44-0.61 0.32 1.29zM2.96 5.73L0.81 4.44l0.68-1.14 2.15 1.3-0.68 1.13z m1.65 6.61l1.13 0.68-1.29 2.15-1.13-0.68 1.29-2.15z m2.7-9.83l-1.3 0.33L5.41 0.4l1.29-0.32 0.61 2.43z m1.35 10.95l1.29-0.32 0.61 2.44-1.29 0.32-0.61-2.44zM11.39 3.63l-1.16-0.68 1.31-2.15 1.14 0.68-1.29 2.15z m1.64 6.59l2.15 1.31-0.68 1.14-2.15-1.3 0.68-1.15z m2.55-4.82l0.32 1.29-2.43 0.6L13.15 6l2.43-0.6z"></path><path d="M3.83 9.02a4.18 4.18 0 1 0 8.12-2.02 4.18 4.18 0 1 0-8.12 2.02"></path></g><g id="SvgjsG8086"><path d="M9.22 10.64l0.97-0.24 0.24 0.97L9.46 11.61zM9.9 14.6L11.64 14.16l-0.48-1.94-1.95 0.48 0.49 1.95 0.19-0.05z"></path><path d="M14.35 7.74L12.9 1.91l-2.29 2.34 0.62 2.5-1.04 0.26L9.36 3.67l-1.25 0.31L7.38 1.08l-3.33 0.83 1.19 4.75-1.67 0.41-0.4-1.63L1.61 4.95 0.46 6.12l0.73 2.91L0.15 9.29l1.81 7.28 3.13-0.77L3.69 10.21a1.5 1.5 0 0 1 2.92-0.73l0.28 1.15-0.4 3.06 0.68-0.16 0.41 1.64 0.42-0.1-0.51-2.06-0.49 0.12 0.3-2.29 2.1-1.54 2.57 0.37 1.34 1.88-0.48 0.12 0.51 2.07 0.82-0.21 2.79-0.69L15.6 7.43l-1.25 0.31z"></path></g><g id="SvgjsG8087"><path d="M14.86 7.04l-1.44 0.36 1.38 5.51c0.25 0.97 1.68 0.62 1.43-0.35L14.86 7.04z m-1.64 0.41l-1.44 0.35 1.38 5.52c0.25 0.97 1.67 0.61 1.43-0.36L13.22 7.45z m-3.49 0.87l-1.44 0.35 1.38 5.52c0.25 0.97 1.68 0.62 1.44-0.36L9.73 8.32z m-1.64 0.4l-1.44 0.36 1.38 5.52c0.25 0.97 1.68 0.61 1.43-0.36L8.09 8.72z m-3.49 0.87l-1.43 0.36 1.37 5.52c0.25 0.97 1.68 0.62 1.44-0.36L4.6 9.59z m-1.64 0.41l-1.43 0.36 1.37 5.52c0.25 0.97 1.68 0.61 1.44-0.36L2.96 10z"></path><path d="M15.67 6.4a0.57 0.57 0 0 1-0.42 0.7s-3.75 0.94-3.77 0.94a0.58 0.58 0 0 1-0.7-0.42L9.77 3.54a0.79 0.79 0 0 1 0.58-0.98c-0.01 0 3.32-0.83 3.32-0.83a0.79 0.79 0 0 1 0.98 0.59l1.02 4.08 0 0zM11.95 1.8c0.59-0.15 0.95-0.75 0.79-1.32A1.1 1.1 0 0 0 11.41-0.34a1.12 1.12 0 0 0-0.81 1.35 1.11 1.11 0 0 0 1.35 0.79z m-1.41 5.88a0.57 0.57 0 0 1-0.42 0.7s-3.75 0.94-3.76 0.94a0.58 0.58 0 0 1-0.7-0.42L4.64 4.81a0.79 0.79 0 0 1 0.59-0.97c-0.01 0 3.32-0.83 3.32-0.83a0.79 0.79 0 0 1 0.97 0.59l1.02 4.08zM6.82 3.08c0.59-0.15 0.95-0.75 0.8-1.33A1.1 1.1 0 0 0 6.29 0.94a1.12 1.12 0 0 0-0.81 1.35 1.11 1.11 0 0 0 1.34 0.79z m-1.41 5.88a0.57 0.57 0 0 1-0.41 0.7s-3.75 0.94-3.77 0.93a0.58 0.58 0 0 1-0.7-0.42L-0.49 6.09a0.79 0.79 0 0 1 0.59-0.98c-0.01 0 3.32-0.83 3.32-0.82a0.79 0.79 0 0 1 0.98 0.58l1.02 4.09zM1.7 4.36c0.59-0.15 0.95-0.75 0.79-1.33A1.1 1.1 0 0 0 1.16 2.22a1.12 1.12 0 0 0-0.81 1.35A1.11 1.11 0 0 0 1.7 4.36z"></path></g><g id="SvgjsG8088"><path d="M14.2 7.41L13.43 4.31c-0.11-0.44 0.16-0.89 0.6-1a0.82 0.82 0 0 1 1 0.6L16.09 8.16c0.15 0.59 0.08 1.21-0.2 1.74L13.95 13.37c-0.2 0.31-0.21 0.55-0.13 0.88L13.95 14.76l-2.88 0.72-0.31-1.22c-0.12-0.46-0.31-1.07 0.12-1.82l2.52-4.21a0.65 0.65 0 0 1 0.4-0.29 0.66 0.66 0 0 1 0.79 0.47c0.04 0.15 0.02 0.31-0.05 0.46l-1.18 2.14c-0.07 0.15-0.19 0.43-0.21 0.73-0.01 0.16 0.01 0.31 0.04 0.47l0.53-0.13c-0.03-0.12-0.04-0.21-0.04-0.31 0.01-0.18 0.07-0.35 0.13-0.46l1.19-2.22c0.15-0.26 0.2-0.56 0.13-0.84-0.11-0.43-0.46-0.75-0.93-0.84z m-12.14 3.03L1.29 7.34c-0.11-0.44-0.56-0.71-1-0.6A0.82 0.82 0 0 0-0.31 7.73L0.75 11.98c0.15 0.59 0.5 1.1 0.99 1.45l3.34 2.15c0.32 0.18 0.44 0.39 0.53 0.72L5.74 16.81l2.88-0.72-0.3-1.22c-0.12-0.46-0.23-1.09-0.97-1.55L3.15 10.78a0.65 0.65 0 0 0-0.48-0.07 0.66 0.66 0 0 0-0.23 1.17l2.06 1.34c0.14 0.1 0.37 0.28 0.53 0.54 0.08 0.14 0.13 0.28 0.17 0.44l-0.52 0.13c-0.03-0.12-0.06-0.21-0.11-0.29-0.09-0.15-0.23-0.27-0.33-0.34L2.14 12.3c-0.26-0.16-0.44-0.4-0.51-0.68-0.11-0.43 0.05-0.88 0.43-1.18z m4.56-8.88a0.71 0.71 0 0 0-0.34-1.37 0.71 0.71 0 0 0 0.34 1.37z m-3.71 0.93c-0.38 0.1-0.77-0.13-0.87-0.52-0.09-0.38 0.14-0.77 0.52-0.86s0.77 0.13 0.87 0.52c0.1 0.38-0.14 0.77-0.52 0.86z"></path><path d="M10.08 3a0.49 0.49 0 1 0 0.95-0.24 0.49 0.49 0 1 0-0.95 0.24"></path><path d="M11.43 3.42l-1.3 0.32c-0.01 0-0.44 0.07-0.44 0.07l-1.01-1.75c-0.41-0.71-1.04-0.52-1.04-0.53l-1.76 0.44s-0.64 0.14-0.67 0.95l-0.03 1-0.5-0.87c-0.41-0.71-1.04-0.52-1.04-0.52L2.28 2.87s-0.64 0.14-0.67 0.95l-0.07 2.04c-0.01 0.19 0.12 0.3 0.29 0.31 0.17 0.01 0.31-0.11 0.31-0.27l0.07-1.99 0.26-0.06L2.49 7.26l0.69-0.17 0.57 2.28c0.05 0.19 0.24 0.3 0.42 0.25 0.19-0.05 0.3-0.24 0.26-0.42l-0.57-2.28 0.29-0.08 0.57 2.29c0.05 0.19 0.24 0.3 0.42 0.25a0.35 0.35 0 0 0 0.26-0.42l-0.57-2.29 0.67-0.16-1.57-3.03 0.26-0.06 0.99 1.7c0.02 0.03 0.04 0.05 0.06 0.08 0.07 0.06 0.17 0.09 0.27 0.06 0.1-0.02 0.18-0.09 0.21-0.18 0.01-0.03 0.02-0.07 0.02-0.11l0.07-1.95 0.24-0.06 1.35 5.42a0.41 0.41 0 0 0 0.51 0.31 0.41 0.41 0 0 0 0.3-0.51L7.44 5.1l0.29-0.08 0.77 3.09a0.41 0.41 0 0 0 0.5 0.3 0.41 0.41 0 0 0 0.31-0.5l-1.35-5.43 0.25-0.06 0.98 1.73c0.05 0.08 0.14 0.13 0.24 0.12 0 0 0.01 0 0.01 0 0.09 0 0.49 0.01 0.78 0.02l0.84 3.37a0.29 0.29 0 0 0 0.56-0.14L11.2 5.84l0.22-0.06 0.42 1.68c0.04 0.16 0.2 0.25 0.35 0.22s0.25-0.2 0.22-0.36l-0.79-3.14 0.22-0.06 0.26 1.07c0.03 0.12 0.15 0.19 0.27 0.16 0.12-0.03 0.18-0.15 0.15-0.26l-0.3-1.22c-0.08-0.34-0.45-0.54-0.79-0.45z"></path></g><g id="SvgjsG8089"><path d="M12.01 10.77c-1.5 2.49-4.73 3.3-7.22 1.8-2.49-1.5-3.3-4.73-1.8-7.22 0.71-1.18 2.01-2.74 4.53-3.38 4.61-1.15 5.74-2.72 5.74-2.72 1.38 5.54 0.25 9.02-1.25 11.52z"></path><path d="M4.24 12.67L3.25 11.48l5.19-5.79z"></path><path d="M8.44 5.69l1.4 0.83-5.98 9.95-1.39-0.84z"></path></g><g id="SvgjsG8090"><path d="M7.9 11.33l0.92 3.68s0.36 0.94-0.83 1.24l-4.74 1.18c-1.2 0.3-1.32-0.7-1.31-0.7l-0.92-3.68 6.88-1.72zM3.12 1.45A0.96 0.96 0 0 0 2.21 1.2L0.68 1.58c-0.54 0.13-0.86 0.68-0.72 1.23 0.05 0.19 0.15 0.35 0.28 0.48l0.01 0.01a4.1 4.1 0 0 1 1.28 2.1c0.36 1.44-0.09 2.89-1.05 3.87l-0.01 0.01a0.81 0.81 0 0 0-0.2 0.76l0.29 1.16 6.89-1.71L6.38 5.2s-0.09-0.4-0.48-0.83L3.12 1.45z m5.48-1.37A0.97 0.97 0 0 1 9.29-0.57l1.53-0.38c0.53-0.13 1.08 0.2 1.22 0.74 0.05 0.19 0.04 0.38-0.02 0.56l-0.01 0.01c-0.28 0.76-0.36 1.61-0.15 2.46 0.36 1.44 1.44 2.51 2.75 2.92l0.01 0.01c0.26 0.09 0.46 0.29 0.54 0.57l0.29 1.17L8.56 9.21l-1.07-4.29s-0.1-0.4 0.03-0.95L8.6 0.08z m7.31 9.26l0.91 3.68s0.36 0.94-0.83 1.23L11.25 15.43c-1.2 0.3-1.32-0.7-1.32-0.7l-0.91-3.67 6.89-1.72zM8.9 10.47a0.34 0.34 0 0 0 0.25-0.41c-0.04-0.18-0.23-0.29-0.41-0.25l-1.1 0.28c-0.18 0.04-0.29 0.23-0.24 0.4 0.05 0.18 0.22 0.3 0.4 0.26l1.1-0.28z"></path></g><g id="SvgjsG8091"><path d="M13.56 1.85L0.2 5.17l-0.24-2.07 12.84-3.2z"></path><path d="M8.58 1.05L4.22 2.14l0.15-1.07 3.58-0.89z m1.76 2.36L12.72 12.97l-0.93 0.23L9.4 3.64l-1.87 0.47L9.91 13.67l-0.94 0.23L6.59 4.34 4.59 4.84 6.97 14.4l-0.94 0.23L3.65 5.07 1.24 5.68l3.41 10.93 10.35-2.58-1.99-11.29z"></path></g><g id="SvgjsG8092"><path d="M12.04 10.4l0.9 0.45 0.92-1.86-1.86-0.93-0.45 0.92 0.49 1.42zM16.57 10.31l-2.9 0.72 0.74 2.95 1.96-0.49 0.68-1.24L16.57 10.31zM12.11 14.71l0.91-0.53-1.61-2.72-1.94 1.14 0.03 1.86 2.61 0.25zM6.89 2.32C4.3 1.56 3.1 1.82 0.99 2.09l0.01 0.41c2.7-0.05 3.49 0.39 5.52 1.01l0.53 1.11L3.64 15.6a0.88 0.88 0 0 0 1.05 1.06c0.31-0.07 0.54-0.3 0.64-0.59l3.38-10.74 2.69 0.9 0.7-2.26-5.21-1.65" fill-rule="evenodd"></path></g><g id="SvgjsG8093"><path d="M3.36 0.91l5.39-1.34 1.27 5.08L15.09 3.38l1.34 5.38L11.4 10.01 12.66 15.08l-5.41 1.35L5.99 11.36 0.91 12.63l-1.34-5.38 5.05-1.26z"></path></g><g id="SvgjsG8094"><use xlink:href="#SvgjsG8083" transform="translate(0, 0) scale(1.8)" fill="rgba(67, 194, 225, 0.11)"></use><use xlink:href="#SvgjsG8084" transform="translate(0, 99) scale(1.8)" fill="rgba(67, 194, 225, 0.11)"></use><use xlink:href="#SvgjsG8085" transform="translate(0, 198) scale(1.8)" fill="rgba(67, 194, 225, 0.11)"></use><use xlink:href="#SvgjsG8086" transform="translate(0, 297) scale(1.8)" fill="rgba(67, 194, 225, 0.11)"></use><use xlink:href="#SvgjsG8087" transform="translate(0, 396) scale(1.8)" fill="rgba(67, 194, 225, 0.11)"></use><use xlink:href="#SvgjsG8088" transform="translate(0, 495) scale(1.8)" fill="rgba(67, 194, 225, 0.11)"></use><use xlink:href="#SvgjsG8084" transform="translate(99, 0) scale(1.8)" fill="rgba(67, 194, 225, 0.11)"></use><use xlink:href="#SvgjsG8085" transform="translate(99, 99) scale(1.8)" fill="rgba(67, 194, 225, 0.11)"></use><use xlink:href="#SvgjsG8086" transform="translate(99, 198) scale(1.8)" fill="rgba(67, 194, 225, 0.11)"></use><use xlink:href="#SvgjsG8087" transform="translate(99, 297) scale(1.8)" fill="rgba(67, 194, 225, 0.11)"></use><use xlink:href="#SvgjsG8088" transform="translate(99, 396) scale(1.8)" fill="rgba(67, 194, 225, 0.11)"></use><use xlink:href="#SvgjsG8089" transform="translate(99, 495) scale(1.8)" fill="rgba(67, 194, 225, 0.11)"></use><use xlink:href="#SvgjsG8085" transform="translate(198, 0) scale(1.8)" fill="rgba(67, 194, 225, 0.11)"></use><use xlink:href="#SvgjsG8086" transform="translate(198, 99) scale(1.8)" fill="rgba(67, 194, 225, 0.11)"></use><use xlink:href="#SvgjsG8087" transform="translate(198, 198) scale(1.8)" fill="rgba(67, 194, 225, 0.11)"></use><use xlink:href="#SvgjsG8088" transform="translate(198, 297) scale(1.8)" fill="rgba(67, 194, 225, 0.11)"></use><use xlink:href="#SvgjsG8089" transform="translate(198, 396) scale(1.8)" fill="rgba(67, 194, 225, 0.11)"></use><use xlink:href="#SvgjsG8090" transform="translate(198, 495) scale(1.8)" fill="rgba(67, 194, 225, 0.11)"></use><use xlink:href="#SvgjsG8086" transform="translate(297, 0) scale(1.8)" fill="rgba(67, 194, 225, 0.11)"></use><use xlink:href="#SvgjsG8087" transform="translate(297, 99) scale(1.8)" fill="rgba(67, 194, 225, 0.11)"></use><use xlink:href="#SvgjsG8088" transform="translate(297, 198) scale(1.8)" fill="rgba(67, 194, 225, 0.11)"></use><use xlink:href="#SvgjsG8089" transform="translate(297, 297) scale(1.8)" fill="rgba(67, 194, 225, 0.11)"></use><use xlink:href="#SvgjsG8090" transform="translate(297, 396) scale(1.8)" fill="rgba(67, 194, 225, 0.11)"></use><use xlink:href="#SvgjsG8091" transform="translate(297, 495) scale(1.8)" fill="rgba(67, 194, 225, 0.11)"></use><use xlink:href="#SvgjsG8087" transform="translate(396, 0) scale(1.8)" fill="rgba(67, 194, 225, 0.11)"></use><use xlink:href="#SvgjsG8088" transform="translate(396, 99) scale(1.8)" fill="rgba(67, 194, 225, 0.11)"></use><use xlink:href="#SvgjsG8089" transform="translate(396, 198) scale(1.8)" fill="rgba(67, 194, 225, 0.11)"></use><use xlink:href="#SvgjsG8090" transform="translate(396, 297) scale(1.8)" fill="rgba(67, 194, 225, 0.11)"></use><use xlink:href="#SvgjsG8091" transform="translate(396, 396) scale(1.8)" fill="rgba(67, 194, 225, 0.11)"></use><use xlink:href="#SvgjsG8092" transform="translate(396, 495) scale(1.8)" fill="rgba(67, 194, 225, 0.11)"></use><use xlink:href="#SvgjsG8088" transform="translate(495, 0) scale(1.8)" fill="rgba(67, 194, 225, 0.11)"></use><use xlink:href="#SvgjsG8089" transform="translate(495, 99) scale(1.8)" fill="rgba(67, 194, 225, 0.11)"></use><use xlink:href="#SvgjsG8090" transform="translate(495, 198) scale(1.8)" fill="rgba(67, 194, 225, 0.11)"></use><use xlink:href="#SvgjsG8091" transform="translate(495, 297) scale(1.8)" fill="rgba(67, 194, 225, 0.11)"></use><use xlink:href="#SvgjsG8092" transform="translate(495, 396) scale(1.8)" fill="rgba(67, 194, 225, 0.11)"></use><use xlink:href="#SvgjsG8093" transform="translate(495, 495) scale(1.8)" fill="rgba(67, 194, 225, 0.11)"></use><use xlink:href="#SvgjsG8089" transform="translate(594, 0) scale(1.8)" fill="rgba(67, 194, 225, 0.11)"></use><use xlink:href="#SvgjsG8090" transform="translate(594, 99) scale(1.8)" fill="rgba(67, 194, 225, 0.11)"></use><use xlink:href="#SvgjsG8091" transform="translate(594, 198) scale(1.8)" fill="rgba(67, 194, 225, 0.11)"></use><use xlink:href="#SvgjsG8092" transform="translate(594, 297) scale(1.8)" fill="rgba(67, 194, 225, 0.11)"></use><use xlink:href="#SvgjsG8093" transform="translate(594, 396) scale(1.8)" fill="rgba(67, 194, 225, 0.11)"></use><use xlink:href="#SvgjsG8083" transform="translate(594, 495) scale(1.8)" fill="rgba(67, 194, 225, 0.11)"></use><use xlink:href="#SvgjsG8090" transform="translate(693, 0) scale(1.8)" fill="rgba(67, 194, 225, 0.11)"></use><use xlink:href="#SvgjsG8091" transform="translate(693, 99) scale(1.8)" fill="rgba(67, 194, 225, 0.11)"></use><use xlink:href="#SvgjsG8092" transform="translate(693, 198) scale(1.8)" fill="rgba(67, 194, 225, 0.11)"></use><use xlink:href="#SvgjsG8093" transform="translate(693, 297) scale(1.8)" fill="rgba(67, 194, 225, 0.11)"></use><use xlink:href="#SvgjsG8083" transform="translate(693, 396) scale(1.8)" fill="rgba(67, 194, 225, 0.11)"></use><use xlink:href="#SvgjsG8084" transform="translate(693, 495) scale(1.8)" fill="rgba(67, 194, 225, 0.11)"></use><use xlink:href="#SvgjsG8091" transform="translate(792, 0) scale(1.8)" fill="rgba(67, 194, 225, 0.11)"></use><use xlink:href="#SvgjsG8092" transform="translate(792, 99) scale(1.8)" fill="rgba(67, 194, 225, 0.11)"></use><use xlink:href="#SvgjsG8093" transform="translate(792, 198) scale(1.8)" fill="rgba(67, 194, 225, 0.11)"></use><use xlink:href="#SvgjsG8083" transform="translate(792, 297) scale(1.8)" fill="rgba(67, 194, 225, 0.11)"></use><use xlink:href="#SvgjsG8084" transform="translate(792, 396) scale(1.8)" fill="rgba(67, 194, 225, 0.11)"></use><use xlink:href="#SvgjsG8085" transform="translate(792, 495) scale(1.8)" fill="rgba(67, 194, 225, 0.11)"></use><use xlink:href="#SvgjsG8092" transform="translate(891, 0) scale(1.8)" fill="rgba(67, 194, 225, 0.11)"></use><use xlink:href="#SvgjsG8093" transform="translate(891, 99) scale(1.8)" fill="rgba(67, 194, 225, 0.11)"></use><use xlink:href="#SvgjsG8083" transform="translate(891, 198) scale(1.8)" fill="rgba(67, 194, 225, 0.11)"></use><use xlink:href="#SvgjsG8084" transform="translate(891, 297) scale(1.8)" fill="rgba(67, 194, 225, 0.11)"></use><use xlink:href="#SvgjsG8085" transform="translate(891, 396) scale(1.8)" fill="rgba(67, 194, 225, 0.11)"></use><use xlink:href="#SvgjsG8086" transform="translate(891, 495) scale(1.8)" fill="rgba(67, 194, 225, 0.11)"></use></g></defs></svg>